# Made in Blockbench 4.2.2
mtllib ReactorController.mtl

o cube
v 1.5 2 0.5
v 1.5 2 -0.5
v 1.5 0 0.5
v 1.5 0 -0.5
v -1.5 2 0.5
v -1.5 2 -0.5
v -1.5 0 0.5
v -1.5 0 -0.5
v -2.5 1.8125 0.5
v -2.5 1.8125 -0.5
v -2.25 0.25 0.5
v -2.25 0.25 -0.5
v 2.5 1.8125 0.5
v 2.25 0.25 0.5
v 2.5 1.8125 -0.5
v 2.25 0.25 -0.5
vt 0.0625 0.6875
vt 0 0.6875
vt 0 0.58984375
vt 0.0625 0.58984375
vt 0.06358906250000002 0.6875
vt 0.2510890625 0.6875
vt 0.2510890625 0.75
vt 0.06358906250000002 0.75
vt 0.541598046875 0.875
vt 0.541598046875 0.9375
vt 0.354098046875 0.9375
vt 0.354098046875 0.875
vt 0.25 0.875
vt 0.25 1
vt 0.0625 1
vt 0.0625 0.875
vt 0.25 0.875
vt 0.0625 0.875
vt 0.0625 0.75
vt 0.25 0.75
vt 0.125 0.58984375
vt 0.125 0.6875
vt 0.0625 0.6875
vt 0.0625 0.58984375
vt 0 0.98828125
vt 0.015625 0.890625
vt 0.0625 0.875
vt 0.0625 1
vt 0 0.75
vt 0 0.6875
vt 0.06358906250000002 0.6875
vt 0.06358906250000002 0.75
vt 0.296875 0.765625
vt 0.3125 0.86328125
vt 0.25 0.875
vt 0.25 0.75
vt 0.3046875 0.9375
vt 0.3046875 0.875
vt 0.354098046875 0.875
vt 0.354098046875 0.9375
vt 0.31467812500000003 0.6875
vt 0.31467812500000003 0.75
vt 0.2510890625 0.75
vt 0.2510890625 0.6875
vt 0.296875 0.890625
vt 0.3125 0.98828125
vt 0.25 1
vt 0.25 0.875
vt 0.5910085937499999 0.875
vt 0.59100859375 0.9375
vt 0.541598046875 0.9375
vt 0.5415980468749999 0.875
vt 0 0.86328125
vt 0.015625 0.765625
vt 0.0625 0.75
vt 0.0625 0.875
vn 0.9874406319167055 -0.15799050110667287 0
vn 0 1 0
vn 0 -1 0
vn 0 0 1
vn 0 0 -1
vn -0.9874406319167055 -0.15799050110667287 0
vn 0 0 1
vn -0.18428853505018536 0.9828721869343219 0
vn 0 0 -1
vn -0.316227766016838 -0.948683298050514 0
vn 0.18428853505018536 0.9828721869343219 0
vn 0 0 1
vn 0.316227766016838 -0.948683298050514 0
vn 0 0 -1
usemtl m_0
f 15/1/1 13/2/1 14/3/1 16/4/1
f 5/5/2 1/6/2 2/7/2 6/8/2
f 4/9/3 3/10/3 7/11/3 8/12/3
f 3/13/4 1/14/4 5/15/4 7/16/4
f 6/17/5 2/18/5 4/19/5 8/20/5
f 11/21/6 9/22/6 10/23/6 12/24/6
f 9/25/7 11/26/7 7/27/7 5/28/7
f 10/29/8 9/30/8 5/31/8 6/32/8
f 12/33/9 10/34/9 6/35/9 8/36/9
f 11/37/10 12/38/10 8/39/10 7/40/10
f 13/41/11 15/42/11 2/43/11 1/44/11
f 14/45/12 13/46/12 1/47/12 3/48/12
f 16/49/13 14/50/13 3/51/13 4/52/13
f 15/53/14 16/54/14 4/55/14 2/56/14