# Blender v2.91.0 OBJ File: ''
# www.blender.org
mtllib sphere.mtl
o Sphere_Sphere.001
v 0.500000 0.933013 0.250000
v 0.500000 0.750000 0.066987
v 0.500000 0.629410 0.017037
v 0.500000 0.500000 0.000000
v 0.500000 0.370591 0.017037
v 0.500000 0.250000 0.066987
v 0.500000 0.146447 0.146447
v 0.500000 0.066987 0.250000
v 0.500000 0.017037 0.370590
v 0.500000 0.000000 0.500000
v 0.564705 0.982963 0.387928
v 0.625000 0.933013 0.283494
v 0.676777 0.853553 0.193814
v 0.716506 0.750000 0.125000
v 0.741481 0.629410 0.081742
v 0.750000 0.500000 0.066987
v 0.741481 0.370591 0.081742
v 0.716506 0.250000 0.125000
v 0.676777 0.146447 0.193814
v 0.625000 0.066987 0.283494
v 0.564705 0.017037 0.387928
v 0.612072 0.982963 0.435295
v 0.716506 0.933013 0.375000
v 0.806186 0.853553 0.323223
v 0.875000 0.750000 0.283494
v 0.918258 0.629410 0.258518
v 0.933012 0.500000 0.250000
v 0.918258 0.370591 0.258518
v 0.875000 0.250000 0.283494
v 0.806186 0.146447 0.323223
v 0.716506 0.066987 0.375000
v 0.612072 0.017037 0.435295
v 0.629409 0.982963 0.500000
v 0.750000 0.933013 0.500000
v 0.853553 0.853553 0.500000
v 0.933012 0.750000 0.500000
v 0.982963 0.629410 0.500000
v 1.000000 0.500000 0.500000
v 0.982963 0.370591 0.500000
v 0.933013 0.250000 0.500000
v 0.853553 0.146447 0.500000
v 0.750000 0.066987 0.500000
v 0.629409 0.017037 0.500000
v 0.612072 0.982963 0.564704
v 0.716506 0.933013 0.625000
v 0.806186 0.853553 0.676776
v 0.875000 0.750000 0.716506
v 0.918258 0.629410 0.741481
v 0.933012 0.500000 0.750000
v 0.918258 0.370591 0.741481
v 0.875000 0.250000 0.716506
v 0.806186 0.146447 0.676776
v 0.716506 0.066987 0.625000
v 0.612072 0.017037 0.564705
v 0.564705 0.982963 0.612072
v 0.625000 0.933013 0.716506
v 0.676777 0.853553 0.806186
v 0.716506 0.750000 0.875000
v 0.741481 0.629410 0.918258
v 0.750000 0.500000 0.933012
v 0.741481 0.370591 0.918258
v 0.716506 0.250000 0.875000
v 0.676777 0.146447 0.806186
v 0.625000 0.066987 0.716506
v 0.564705 0.017037 0.612072
v 0.500000 0.982963 0.629409
v 0.500000 0.933013 0.750000
v 0.500000 0.853553 0.853553
v 0.500000 0.750000 0.933012
v 0.500000 0.629410 0.982962
v 0.500000 0.500000 1.000000
v 0.500000 0.370591 0.982962
v 0.500000 0.250000 0.933012
v 0.500000 0.146447 0.853553
v 0.500000 0.066987 0.750000
v 0.500000 0.017037 0.629409
v 0.435295 0.982963 0.612072
v 0.375000 0.933013 0.716506
v 0.323223 0.853553 0.806186
v 0.283494 0.750000 0.875000
v 0.258519 0.629410 0.918258
v 0.250000 0.500000 0.933012
v 0.258519 0.370591 0.918258
v 0.283494 0.250000 0.875000
v 0.323223 0.146447 0.806186
v 0.375000 0.066987 0.716506
v 0.435295 0.017037 0.612072
v 0.387928 0.982963 0.564704
v 0.283494 0.933013 0.625000
v 0.193814 0.853553 0.676776
v 0.125000 0.750000 0.716506
v 0.081742 0.629410 0.741481
v 0.066987 0.500000 0.750000
v 0.081742 0.370591 0.741481
v 0.125000 0.250000 0.716506
v 0.193814 0.146447 0.676776
v 0.283494 0.066987 0.625000
v 0.387928 0.017037 0.564705
v 0.370591 0.982963 0.500000
v 0.250000 0.933013 0.500000
v 0.146447 0.853553 0.500000
v 0.066988 0.750000 0.500000
v 0.017037 0.629410 0.500000
v 0.000000 0.500000 0.500000
v 0.017037 0.370591 0.500000
v 0.066987 0.250000 0.500000
v 0.146447 0.146447 0.500000
v 0.250000 0.066987 0.500000
v 0.370591 0.017037 0.500000
v 0.387928 0.982963 0.435295
v 0.283494 0.933013 0.375000
v 0.193814 0.853553 0.323223
v 0.125000 0.750000 0.283494
v 0.081742 0.629410 0.258518
v 0.066988 0.500000 0.250000
v 0.081742 0.370591 0.258518
v 0.125000 0.250000 0.283494
v 0.193814 0.146447 0.323223
v 0.283494 0.066987 0.375000
v 0.387928 0.017037 0.435295
v 0.435295 0.982963 0.387928
v 0.375000 0.933013 0.283494
v 0.323223 0.853553 0.193814
v 0.283494 0.750000 0.125000
v 0.258519 0.629410 0.081742
v 0.250000 0.500000 0.066987
v 0.258519 0.370591 0.081742
v 0.283494 0.250000 0.125000
v 0.323223 0.146447 0.193814
v 0.375000 0.066987 0.283494
v 0.435295 0.017037 0.387928
v 0.500000 1.000000 0.500000
v 0.500000 0.982963 0.370591
v 0.500000 0.853553 0.146447
vt 0.750000 0.416667
vt 0.750000 0.500000
vt 0.666667 0.500000
vt 0.666667 0.416667
vt 0.750000 0.666667
vt 0.750000 0.750000
vt 0.666667 0.750000
vt 0.666667 0.666667
vt 0.750000 0.083333
vt 0.750000 0.166667
vt 0.666667 0.166667
vt 0.666667 0.083333
vt 0.750000 0.916667
vt 0.708333 1.000000
vt 0.666667 0.916667
vt 0.750000 0.333333
vt 0.666667 0.333333
vt 0.750000 0.583333
vt 0.666667 0.583333
vt 0.708333 0.000000
vt 0.750000 0.833333
vt 0.666667 0.833333
vt 0.750000 0.250000
vt 0.666667 0.250000
vt 0.583333 0.666667
vt 0.583333 0.583333
vt 0.625000 0.000000
vt 0.583334 0.083333
vt 0.583334 0.916667
vt 0.583333 0.833333
vt 0.583333 0.333333
vt 0.583333 0.250000
vt 0.583333 0.500000
vt 0.583333 0.750000
vt 0.583333 0.166667
vt 0.583333 0.416667
vt 0.625000 1.000000
vt 0.500000 0.750000
vt 0.500000 0.666667
vt 0.500000 0.166667
vt 0.500000 0.083333
vt 0.541667 1.000000
vt 0.500000 0.916667
vt 0.500000 0.416667
vt 0.500000 0.333333
vt 0.500000 0.583333
vt 0.541667 0.000000
vt 0.500000 0.833333
vt 0.500000 0.250000
vt 0.500000 0.500000
vt 0.416667 0.583333
vt 0.416667 0.500000
vt 0.416667 0.833333
vt 0.416667 0.750000
vt 0.416667 0.250000
vt 0.416667 0.166667
vt 0.416667 0.416667
vt 0.416667 0.666667
vt 0.416667 0.083333
vt 0.458334 1.000000
vt 0.416667 0.916667
vt 0.416667 0.333333
vt 0.458334 0.000000
vt 0.333333 0.666667
vt 0.333333 0.583333
vt 0.375000 0.000000
vt 0.333333 0.083333
vt 0.333333 0.916667
vt 0.333333 0.833334
vt 0.333333 0.333333
vt 0.333333 0.250000
vt 0.333333 0.500000
vt 0.333333 0.750000
vt 0.333333 0.166667
vt 0.333333 0.416667
vt 0.375000 1.000000
vt 0.250000 0.500000
vt 0.250000 0.416667
vt 0.250000 0.750000
vt 0.250000 0.666667
vt 0.250000 0.166666
vt 0.250000 0.083333
vt 0.291667 1.000000
vt 0.250000 0.916667
vt 0.250000 0.333333
vt 0.250000 0.583333
vt 0.291667 0.000000
vt 0.250000 0.833334
vt 0.250000 0.250000
vt 0.166667 0.583333
vt 0.166667 0.500000
vt 0.166667 0.833334
vt 0.166667 0.750000
vt 0.166667 0.250000
vt 0.166667 0.166667
vt 0.166667 0.416667
vt 0.166667 0.666667
vt 0.166667 0.083333
vt 0.208333 1.000000
vt 0.166667 0.916667
vt 0.166667 0.333333
vt 0.208333 0.000000
vt 0.083333 0.416667
vt 0.083333 0.333333
vt 0.083333 0.666667
vt 0.083333 0.583333
vt 0.125000 0.000000
vt 0.083333 0.083333
vt 0.083333 0.916667
vt 0.083333 0.833333
vt 0.083333 0.250000
vt 0.083333 0.500000
vt 0.083333 0.750000
vt 0.083333 0.166667
vt 0.125000 1.000000
vt 0.000000 0.500000
vt 0.000000 0.416667
vt 0.000000 0.750000
vt 0.000000 0.666667
vt 0.000000 0.166667
vt 0.000000 0.083333
vt 0.041666 1.000000
vt 0.000000 0.916667
vt 0.000000 0.333333
vt 0.000000 0.583333
vt 0.041666 0.000000
vt 0.000000 0.833333
vt 0.000000 0.250000
vt 1.000000 0.250000
vt 1.000000 0.333333
vt 0.916667 0.333333
vt 0.916667 0.250000
vt 1.000000 0.500000
vt 1.000000 0.583333
vt 0.916667 0.583333
vt 0.916667 0.500000
vt 1.000000 0.750000
vt 1.000000 0.833333
vt 0.916667 0.833333
vt 0.916667 0.750000
vt 1.000000 0.166667
vt 0.916667 0.166667
vt 1.000000 0.416667
vt 0.916667 0.416667
vt 1.000000 0.666667
vt 0.916667 0.666667
vt 1.000000 0.083333
vt 0.916666 0.083333
vt 1.000000 0.916667
vt 0.958333 1.000000
vt 0.916666 0.916667
vt 0.958333 0.000000
vt 0.875000 1.000000
vt 0.833333 0.916667
vt 0.833333 0.416667
vt 0.833333 0.333333
vt 0.833333 0.666667
vt 0.833333 0.583333
vt 0.875000 0.000000
vt 0.833333 0.083333
vt 0.833333 0.833333
vt 0.833333 0.250000
vt 0.833333 0.500000
vt 0.833333 0.750000
vt 0.833333 0.166667
vt 0.791667 1.000000
vt 0.791667 0.000000
vn 0.2568 -0.1262 -0.9582
vn 0.2079 0.5955 -0.7760
vn 0.1020 -0.9191 -0.3807
vn 0.0350 0.9908 -0.1304
vn 0.2403 -0.3715 -0.8968
vn 0.2403 0.3715 -0.8968
vn 0.0350 -0.9908 -0.1304
vn 0.1020 0.9191 -0.3807
vn 0.2079 -0.5955 -0.7760
vn 0.2568 0.1262 -0.9582
vn 0.1610 0.7830 -0.6008
vn 0.1610 -0.7830 -0.6008
vn 0.6565 0.3715 -0.6565
vn 0.0955 -0.9908 -0.0955
vn 0.2787 0.9191 -0.2787
vn 0.5681 -0.5955 -0.5681
vn 0.7015 0.1262 -0.7015
vn 0.4398 0.7830 -0.4398
vn 0.4398 -0.7830 -0.4398
vn 0.7015 -0.1262 -0.7015
vn 0.5681 0.5955 -0.5681
vn 0.2787 -0.9191 -0.2787
vn 0.0955 0.9908 -0.0955
vn 0.6565 -0.3715 -0.6565
vn 0.7760 0.5955 -0.2079
vn 0.3807 -0.9191 -0.1020
vn 0.1304 0.9908 -0.0350
vn 0.8968 -0.3715 -0.2403
vn 0.8968 0.3715 -0.2403
vn 0.1304 -0.9908 -0.0350
vn 0.3807 0.9191 -0.1020
vn 0.7760 -0.5955 -0.2079
vn 0.9582 0.1262 -0.2568
vn 0.6008 0.7830 -0.1610
vn 0.6008 -0.7830 -0.1610
vn 0.9582 -0.1262 -0.2568
vn 0.9582 0.1262 0.2568
vn 0.6008 0.7830 0.1610
vn 0.6008 -0.7830 0.1610
vn 0.9582 -0.1261 0.2568
vn 0.7760 0.5955 0.2079
vn 0.3807 -0.9191 0.1020
vn 0.1304 0.9908 0.0350
vn 0.8968 -0.3715 0.2403
vn 0.8968 0.3715 0.2403
vn 0.1304 -0.9908 0.0350
vn 0.3807 0.9191 0.1020
vn 0.7760 -0.5955 0.2079
vn 0.6565 0.3715 0.6565
vn 0.0955 -0.9908 0.0955
vn 0.2787 0.9191 0.2787
vn 0.5681 -0.5955 0.5681
vn 0.7015 0.1262 0.7015
vn 0.4398 0.7830 0.4398
vn 0.4398 -0.7830 0.4398
vn 0.7015 -0.1262 0.7015
vn 0.5681 0.5955 0.5681
vn 0.2787 -0.9191 0.2787
vn 0.0955 0.9908 0.0955
vn 0.6565 -0.3715 0.6565
vn 0.2568 -0.1262 0.9582
vn 0.2079 0.5955 0.7760
vn 0.1020 -0.9191 0.3807
vn 0.0350 0.9908 0.1304
vn 0.2403 -0.3715 0.8968
vn 0.2403 0.3715 0.8968
vn 0.0350 -0.9908 0.1304
vn 0.1020 0.9191 0.3807
vn 0.2079 -0.5955 0.7760
vn 0.2568 0.1262 0.9582
vn 0.1610 0.7830 0.6008
vn 0.1610 -0.7830 0.6008
vn -0.2568 0.1262 0.9582
vn -0.1610 0.7830 0.6008
vn -0.1610 -0.7830 0.6008
vn -0.2568 -0.1262 0.9582
vn -0.2079 0.5955 0.7760
vn -0.1020 -0.9191 0.3807
vn -0.0350 0.9908 0.1304
vn -0.2403 -0.3715 0.8968
vn -0.2403 0.3715 0.8968
vn -0.0350 -0.9908 0.1304
vn -0.1020 0.9191 0.3807
vn -0.2079 -0.5955 0.7760
vn -0.6565 -0.3715 0.6565
vn -0.6565 0.3715 0.6565
vn -0.0955 -0.9908 0.0955
vn -0.2787 0.9191 0.2787
vn -0.5681 -0.5955 0.5681
vn -0.7015 0.1262 0.7015
vn -0.4398 0.7830 0.4398
vn -0.4398 -0.7830 0.4398
vn -0.7015 -0.1262 0.7015
vn -0.5681 0.5955 0.5681
vn -0.2787 -0.9191 0.2787
vn -0.0955 0.9908 0.0955
vn -0.9582 -0.1262 0.2568
vn -0.7760 0.5955 0.2079
vn -0.3807 -0.9191 0.1020
vn -0.1304 0.9908 0.0350
vn -0.8968 -0.3715 0.2403
vn -0.8968 0.3715 0.2403
vn -0.1304 -0.9908 0.0350
vn -0.3807 0.9191 0.1020
vn -0.7760 -0.5955 0.2079
vn -0.9582 0.1262 0.2568
vn -0.6008 0.7830 0.1610
vn -0.6008 -0.7830 0.1610
vn -0.7760 -0.5955 -0.2079
vn -0.9582 0.1262 -0.2568
vn -0.6008 0.7830 -0.1610
vn -0.6008 -0.7830 -0.1610
vn -0.9582 -0.1262 -0.2568
vn -0.7760 0.5955 -0.2079
vn -0.3807 -0.9191 -0.1020
vn -0.1304 0.9908 -0.0350
vn -0.8968 -0.3715 -0.2403
vn -0.8968 0.3715 -0.2403
vn -0.1304 -0.9908 -0.0350
vn -0.3807 0.9191 -0.1020
vn -0.0955 0.9908 -0.0955
vn -0.6565 -0.3715 -0.6565
vn -0.6565 0.3715 -0.6565
vn -0.0955 -0.9908 -0.0955
vn -0.2787 0.9191 -0.2787
vn -0.5681 -0.5955 -0.5681
vn -0.7015 0.1262 -0.7015
vn -0.4398 0.7830 -0.4398
vn -0.4398 -0.7830 -0.4398
vn -0.7015 -0.1262 -0.7015
vn -0.5681 0.5955 -0.5681
vn -0.2787 -0.9191 -0.2787
vn -0.1610 -0.7830 -0.6008
vn -0.2568 -0.1262 -0.9582
vn -0.2079 0.5955 -0.7760
vn -0.1020 -0.9191 -0.3807
vn -0.0350 0.9908 -0.1304
vn -0.2403 -0.3715 -0.8968
vn -0.2403 0.3715 -0.8968
vn -0.0350 -0.9908 -0.1304
vn -0.1020 0.9191 -0.3807
vn -0.2079 -0.5955 -0.7760
vn -0.2568 0.1262 -0.9582
vn -0.1610 0.7830 -0.6008
usemtl Material.001
s off
f 5/1/1 4/2/1 16/3/1 17/4/1
f 2/5/2 134/6/2 13/7/2 14/8/2
f 9/9/3 8/10/3 20/11/3 21/12/3
f 133/13/4 132/14/4 11/15/4
f 6/16/5 5/1/5 17/4/5 18/17/5
f 3/18/6 2/5/6 14/8/6 15/19/6
f 10/20/7 9/9/7 21/12/7
f 1/21/8 133/13/8 11/15/8 12/22/8
f 7/23/9 6/16/9 18/17/9 19/24/9
f 4/2/10 3/18/10 15/19/10 16/3/10
f 134/6/11 1/21/11 12/22/11 13/7/11
f 8/10/12 7/23/12 19/24/12 20/11/12
f 15/19/13 14/8/13 25/25/13 26/26/13
f 10/27/14 21/12/14 32/28/14
f 12/22/15 11/15/15 22/29/15 23/30/15
f 19/24/16 18/17/16 29/31/16 30/32/16
f 16/3/17 15/19/17 26/26/17 27/33/17
f 13/7/18 12/22/18 23/30/18 24/34/18
f 20/11/19 19/24/19 30/32/19 31/35/19
f 17/4/20 16/3/20 27/33/20 28/36/20
f 14/8/21 13/7/21 24/34/21 25/25/21
f 21/12/22 20/11/22 31/35/22 32/28/22
f 11/15/23 132/37/23 22/29/23
f 18/17/24 17/4/24 28/36/24 29/31/24
f 25/25/25 24/34/25 35/38/25 36/39/25
f 32/28/26 31/35/26 42/40/26 43/41/26
f 22/29/27 132/42/27 33/43/27
f 29/31/28 28/36/28 39/44/28 40/45/28
f 26/26/29 25/25/29 36/39/29 37/46/29
f 10/47/30 32/28/30 43/41/30
f 23/30/31 22/29/31 33/43/31 34/48/31
f 30/32/32 29/31/32 40/45/32 41/49/32
f 27/33/33 26/26/33 37/46/33 38/50/33
f 24/34/34 23/30/34 34/48/34 35/38/34
f 31/35/35 30/32/35 41/49/35 42/40/35
f 28/36/36 27/33/36 38/50/36 39/44/36
f 38/50/37 37/46/37 48/51/37 49/52/37
f 35/38/38 34/48/38 45/53/38 46/54/38
f 42/40/39 41/49/39 52/55/39 53/56/39
f 39/44/40 38/50/40 49/52/40 50/57/40
f 36/39/41 35/38/41 46/54/41 47/58/41
f 43/41/42 42/40/42 53/56/42 54/59/42
f 33/43/43 132/60/43 44/61/43
f 40/45/44 39/44/44 50/57/44 51/62/44
f 37/46/45 36/39/45 47/58/45 48/51/45
f 10/63/46 43/41/46 54/59/46
f 34/48/47 33/43/47 44/61/47 45/53/47
f 41/49/48 40/45/48 51/62/48 52/55/48
f 48/51/49 47/58/49 58/64/49 59/65/49
f 10/66/50 54/59/50 65/67/50
f 45/53/51 44/61/51 55/68/51 56/69/51
f 52/55/52 51/62/52 62/70/52 63/71/52
f 49/52/53 48/51/53 59/65/53 60/72/53
f 46/54/54 45/53/54 56/69/54 57/73/54
f 53/56/55 52/55/55 63/71/55 64/74/55
f 50/57/56 49/52/56 60/72/56 61/75/56
f 47/58/57 46/54/57 57/73/57 58/64/57
f 54/59/58 53/56/58 64/74/58 65/67/58
f 44/61/59 132/76/59 55/68/59
f 51/62/60 50/57/60 61/75/60 62/70/60
f 61/75/61 60/72/61 71/77/61 72/78/61
f 58/64/62 57/73/62 68/79/62 69/80/62
f 65/67/63 64/74/63 75/81/63 76/82/63
f 55/68/64 132/83/64 66/84/64
f 62/70/65 61/75/65 72/78/65 73/85/65
f 59/65/66 58/64/66 69/80/66 70/86/66
f 10/87/67 65/67/67 76/82/67
f 56/69/68 55/68/68 66/84/68 67/88/68
f 63/71/69 62/70/69 73/85/69 74/89/69
f 60/72/70 59/65/70 70/86/70 71/77/70
f 57/73/71 56/69/71 67/88/71 68/79/71
f 64/74/72 63/71/72 74/89/72 75/81/72
f 71/77/73 70/86/73 81/90/73 82/91/73
f 68/79/74 67/88/74 78/92/74 79/93/74
f 75/81/75 74/89/75 85/94/75 86/95/75
f 72/78/76 71/77/76 82/91/76 83/96/76
f 69/80/77 68/79/77 79/93/77 80/97/77
f 76/82/78 75/81/78 86/95/78 87/98/78
f 66/84/79 132/99/79 77/100/79
f 73/85/80 72/78/80 83/96/80 84/101/80
f 70/86/81 69/80/81 80/97/81 81/90/81
f 10/102/82 76/82/82 87/98/82
f 67/88/83 66/84/83 77/100/83 78/92/83
f 74/89/84 73/85/84 84/101/84 85/94/84
f 84/101/85 83/96/85 94/103/85 95/104/85
f 81/90/86 80/97/86 91/105/86 92/106/86
f 10/107/87 87/98/87 98/108/87
f 78/92/88 77/100/88 88/109/88 89/110/88
f 85/94/89 84/101/89 95/104/89 96/111/89
f 82/91/90 81/90/90 92/106/90 93/112/90
f 79/93/91 78/92/91 89/110/91 90/113/91
f 86/95/92 85/94/92 96/111/92 97/114/92
f 83/96/93 82/91/93 93/112/93 94/103/93
f 80/97/94 79/93/94 90/113/94 91/105/94
f 87/98/95 86/95/95 97/114/95 98/108/95
f 77/100/96 132/115/96 88/109/96
f 94/103/97 93/112/97 104/116/97 105/117/97
f 91/105/98 90/113/98 101/118/98 102/119/98
f 98/108/99 97/114/99 108/120/99 109/121/99
f 88/109/100 132/122/100 99/123/100
f 95/104/101 94/103/101 105/117/101 106/124/101
f 92/106/102 91/105/102 102/119/102 103/125/102
f 10/126/103 98/108/103 109/121/103
f 89/110/104 88/109/104 99/123/104 100/127/104
f 96/111/105 95/104/105 106/124/105 107/128/105
f 93/112/106 92/106/106 103/125/106 104/116/106
f 90/113/107 89/110/107 100/127/107 101/118/107
f 97/114/108 96/111/108 107/128/108 108/120/108
f 107/129/109 106/130/109 117/131/109 118/132/109
f 104/133/110 103/134/110 114/135/110 115/136/110
f 101/137/111 100/138/111 111/139/111 112/140/111
f 108/141/112 107/129/112 118/132/112 119/142/112
f 105/143/113 104/133/113 115/136/113 116/144/113
f 102/145/114 101/137/114 112/140/114 113/146/114
f 109/147/115 108/141/115 119/142/115 120/148/115
f 99/149/116 132/150/116 110/151/116
f 106/130/117 105/143/117 116/144/117 117/131/117
f 103/134/118 102/145/118 113/146/118 114/135/118
f 10/152/119 109/147/119 120/148/119
f 100/138/120 99/149/120 110/151/120 111/139/120
f 110/151/121 132/153/121 121/154/121
f 117/131/122 116/144/122 127/155/122 128/156/122
f 114/135/123 113/146/123 124/157/123 125/158/123
f 10/159/124 120/148/124 131/160/124
f 111/139/125 110/151/125 121/154/125 122/161/125
f 118/132/126 117/131/126 128/156/126 129/162/126
f 115/136/127 114/135/127 125/158/127 126/163/127
f 112/140/128 111/139/128 122/161/128 123/164/128
f 119/142/129 118/132/129 129/162/129 130/165/129
f 116/144/130 115/136/130 126/163/130 127/155/130
f 113/146/131 112/140/131 123/164/131 124/157/131
f 120/148/132 119/142/132 130/165/132 131/160/132
f 130/165/133 129/162/133 7/23/133 8/10/133
f 127/155/134 126/163/134 4/2/134 5/1/134
f 124/157/135 123/164/135 134/6/135 2/5/135
f 131/160/136 130/165/136 8/10/136 9/9/136
f 121/154/137 132/166/137 133/13/137
f 128/156/138 127/155/138 5/1/138 6/16/138
f 125/158/139 124/157/139 2/5/139 3/18/139
f 10/167/140 131/160/140 9/9/140
f 122/161/141 121/154/141 133/13/141 1/21/141
f 129/162/142 128/156/142 6/16/142 7/23/142
f 126/163/143 125/158/143 3/18/143 4/2/143
f 123/164/144 122/161/144 1/21/144 134/6/144
